<?xml version="1.0" encoding="utf-8" standalone="no"?>
<!DOCTYPE svg PUBLIC "-//W3C//DTD SVG 1.1//EN"
  "http://www.w3.org/Graphics/SVG/1.1/DTD/svg11.dtd">
<svg xmlns:xlink="http://www.w3.org/1999/xlink" width="886.266344pt" height="229.392pt" viewBox="0 0 886.266344 229.392" xmlns="http://www.w3.org/2000/svg" version="1.1">
 <metadata>
  <rdf:RDF xmlns:dc="http://purl.org/dc/elements/1.1/" xmlns:cc="http://creativecommons.org/ns#" xmlns:rdf="http://www.w3.org/1999/02/22-rdf-syntax-ns#">
   <cc:Work>
    <dc:type rdf:resource="http://purl.org/dc/dcmitype/StillImage"/>
    <dc:date>2026-09-13T15:57:55.442632</dc:date>
    <dc:format>image/svg+xml</dc:format>
    <dc:creator>
     <cc:Agent>
      <dc:title>Matplotlib v3.10.9, https://matplotlib.org/</dc:title>
     </cc:Agent>
    </dc:creator>
   </cc:Work>
  </rdf:RDF>
 </metadata>
 <defs>
  <style type="text/css">*{stroke-linejoin: round; stroke-linecap: butt}</style>
 </defs>
 <g id="figure_1">
  <g id="patch_1">
   <path d="M 0 229.392 
L 886.266344 229.392 
L 886.266344 0 
L 0 0 
z
" style="fill: #ffffff"/>
  </g>
  <g id="axes_1">
   <g id="line2d_1">
    <path d="M 83.948275 120.443636 
L 83.948275 144.541933 
" clip-path="url(#pb42e2861e7)" style="fill: none; stroke: #1f77b4; stroke-opacity: 0.8; stroke-width: 0.7; stroke-linecap: square"/>
   </g>
   <g id="line2d_2">
    <path d="M 98.505972 120.443636 
L 98.505972 144.541933 
" clip-path="url(#pb42e2861e7)" style="fill: none; stroke: #ff7f0e; stroke-opacity: 0.8; stroke-width: 0.7; stroke-linecap: square"/>
   </g>
   <g id="line2d_3">
    <path d="M 113.063669 120.443636 
L 113.063669 144.541933 
" clip-path="url(#pb42e2861e7)" style="fill: none; stroke: #2ca02c; stroke-opacity: 0.8; stroke-width: 0.7; stroke-linecap: square"/>
   </g>
   <g id="line2d_4">
    <path d="M 127.621366 120.443636 
L 127.621366 144.541933 
" clip-path="url(#pb42e2861e7)" style="fill: none; stroke: #d62728; stroke-opacity: 0.8; stroke-width: 0.7; stroke-linecap: square"/>
   </g>
   <g id="line2d_5">
    <path d="M 142.179062 120.443636 
L 142.179062 144.541933 
" clip-path="url(#pb42e2861e7)" style="fill: none; stroke: #9467bd; stroke-opacity: 0.8; stroke-width: 0.7; stroke-linecap: square"/>
   </g>
   <g id="line2d_6">
    <path d="M 156.736759 120.443636 
L 156.736759 144.541933 
" clip-path="url(#pb42e2861e7)" style="fill: none; stroke: #8c564b; stroke-opacity: 0.8; stroke-width: 0.7; stroke-linecap: square"/>
   </g>
   <g id="line2d_7">
    <path d="M 171.294456 120.443636 
L 171.294456 144.541933 
" clip-path="url(#pb42e2861e7)" style="fill: none; stroke: #e377c2; stroke-opacity: 0.8; stroke-width: 0.7; stroke-linecap: square"/>
   </g>
   <g id="line2d_8">
    <path d="M 185.852152 120.443636 
L 185.852152 144.541933 
" clip-path="url(#pb42e2861e7)" style="fill: none; stroke: #7f7f7f; stroke-opacity: 0.8; stroke-width: 0.7; stroke-linecap: square"/>
   </g>
   <g id="line2d_9">
    <path d="M 200.409849 120.443636 
L 200.409849 144.541933 
" clip-path="url(#pb42e2861e7)" style="fill: none; stroke: #bcbd22; stroke-opacity: 0.8; stroke-width: 0.7; stroke-linecap: square"/>
   </g>
   <g id="line2d_10">
    <path d="M 214.967546 120.443636 
L 214.967546 144.541933 
" clip-path="url(#pb42e2861e7)" style="fill: none; stroke: #17becf; stroke-opacity: 0.8; stroke-width: 0.7; stroke-linecap: square"/>
   </g>
   <g id="line2d_11">
    <path d="M 229.525242 120.443636 
L 229.525242 144.541933 
" clip-path="url(#pb42e2861e7)" style="fill: none; stroke: #1f77b4; stroke-opacity: 0.8; stroke-width: 0.7; stroke-linecap: square"/>
   </g>
   <g id="line2d_12">
    <path d="M 244.082939 120.443636 
L 244.082939 144.541933 
" clip-path="url(#pb42e2861e7)" style="fill: none; stroke: #ff7f0e; stroke-opacity: 0.8; stroke-width: 0.7; stroke-linecap: square"/>
   </g>
   <g id="line2d_13">
    <path d="M 258.640636 120.443636 
L 258.640636 144.541933 
" clip-path="url(#pb42e2861e7)" style="fill: none; stroke: #2ca02c; stroke-opacity: 0.8; stroke-width: 0.7; stroke-linecap: square"/>
   </g>
   <g id="line2d_14">
    <path d="M 273.198333 120.443636 
L 273.198333 144.541933 
" clip-path="url(#pb42e2861e7)" style="fill: none; stroke: #d62728; stroke-opacity: 0.8; stroke-width: 0.7; stroke-linecap: square"/>
   </g>
   <g id="patch_2">
    <path d="M 78.125197 120.443636 
L 89.771354 120.443636 
L 89.771354 90.990163 
L 78.125197 90.990163 
z
" clip-path="url(#pb42e2861e7)" style="fill: #1f77b4; stroke: #000000; stroke-width: 0.6; stroke-linejoin: miter"/>
   </g>
   <g id="patch_3">
    <path d="M 92.682893 120.443636 
L 104.329051 120.443636 
L 104.329051 90.990163 
L 92.682893 90.990163 
z
" clip-path="url(#pb42e2861e7)" style="fill: #ff7f0e; stroke: #000000; stroke-width: 0.6; stroke-linejoin: miter"/>
   </g>
   <g id="patch_4">
    <path d="M 107.24059 120.443636 
L 118.886747 120.443636 
L 118.886747 90.990163 
L 107.24059 90.990163 
z
" clip-path="url(#pb42e2861e7)" style="fill: #2ca02c; stroke: #000000; stroke-width: 0.6; stroke-linejoin: miter"/>
   </g>
   <g id="patch_5">
    <path d="M 121.798287 120.443636 
L 133.444444 120.443636 
L 133.444444 90.990163 
L 121.798287 90.990163 
z
" clip-path="url(#pb42e2861e7)" style="fill: #d62728; stroke: #000000; stroke-width: 0.6; stroke-linejoin: miter"/>
   </g>
   <g id="patch_6">
    <path d="M 136.355984 120.443636 
L 148.002141 120.443636 
L 148.002141 90.990163 
L 136.355984 90.990163 
z
" clip-path="url(#pb42e2861e7)" style="fill: #9467bd; stroke: #000000; stroke-width: 0.6; stroke-linejoin: miter"/>
   </g>
   <g id="patch_7">
    <path d="M 150.91368 120.443636 
L 162.559838 120.443636 
L 162.559838 90.990163 
L 150.91368 90.990163 
z
" clip-path="url(#pb42e2861e7)" style="fill: #8c564b; stroke: #000000; stroke-width: 0.6; stroke-linejoin: miter"/>
   </g>
   <g id="patch_8">
    <path d="M 165.471377 120.443636 
L 177.117534 120.443636 
L 177.117534 90.990163 
L 165.471377 90.990163 
z
" clip-path="url(#pb42e2861e7)" style="fill: #e377c2; stroke: #000000; stroke-width: 0.6; stroke-linejoin: miter"/>
   </g>
   <g id="patch_9">
    <path d="M 180.029074 120.443636 
L 191.675231 120.443636 
L 191.675231 90.990163 
L 180.029074 90.990163 
z
" clip-path="url(#pb42e2861e7)" style="fill: #7f7f7f; stroke: #000000; stroke-width: 0.6; stroke-linejoin: miter"/>
   </g>
   <g id="patch_10">
    <path d="M 194.58677 120.443636 
L 206.232928 120.443636 
L 206.232928 90.990163 
L 194.58677 90.990163 
z
" clip-path="url(#pb42e2861e7)" style="fill: #bcbd22; stroke: #000000; stroke-width: 0.6; stroke-linejoin: miter"/>
   </g>
   <g id="patch_11">
    <path d="M 209.144467 120.443636 
L 220.790624 120.443636 
L 220.790624 90.990163 
L 209.144467 90.990163 
z
" clip-path="url(#pb42e2861e7)" style="fill: #17becf; stroke: #000000; stroke-width: 0.6; stroke-linejoin: miter"/>
   </g>
   <g id="patch_12">
    <path d="M 223.702164 120.443636 
L 235.348321 120.443636 
L 235.348321 90.990163 
L 223.702164 90.990163 
z
" clip-path="url(#pb42e2861e7)" style="fill: #1f77b4; stroke: #000000; stroke-width: 0.6; stroke-linejoin: miter"/>
   </g>
   <g id="patch_13">
    <path d="M 238.259861 120.443636 
L 249.906018 120.443636 
L 249.906018 90.990163 
L 238.259861 90.990163 
z
" clip-path="url(#pb42e2861e7)" style="fill: #ff7f0e; stroke: #000000; stroke-width: 0.6; stroke-linejoin: miter"/>
   </g>
   <g id="patch_14">
    <path d="M 252.817557 120.443636 
L 264.463715 120.443636 
L 264.463715 90.990163 
L 252.817557 90.990163 
z
" clip-path="url(#pb42e2861e7)" style="fill: #2ca02c; stroke: #000000; stroke-width: 0.6; stroke-linejoin: miter"/>
   </g>
   <g id="patch_15">
    <path d="M 267.375254 120.443636 
L 279.021411 120.443636 
L 279.021411 90.990163 
L 267.375254 90.990163 
z
" clip-path="url(#pb42e2861e7)" style="fill: #d62728; stroke: #000000; stroke-width: 0.6; stroke-linejoin: miter"/>
   </g>
   <g id="patch_16">
    <path d="M 78.125197 173.995407 
L 89.771354 173.995407 
L 89.771354 144.541933 
L 78.125197 144.541933 
z
" clip-path="url(#pb42e2861e7)" style="fill: #1f77b4; stroke: #000000; stroke-width: 0.9; stroke-linejoin: miter"/>
   </g>
   <g id="patch_17">
    <path d="M 92.682893 173.995407 
L 104.329051 173.995407 
L 104.329051 144.541933 
L 92.682893 144.541933 
z
" clip-path="url(#pb42e2861e7)" style="fill: #ff7f0e; stroke: #000000; stroke-width: 0.9; stroke-linejoin: miter"/>
   </g>
   <g id="patch_18">
    <path d="M 107.24059 173.995407 
L 118.886747 173.995407 
L 118.886747 144.541933 
L 107.24059 144.541933 
z
" clip-path="url(#pb42e2861e7)" style="fill: #2ca02c; stroke: #000000; stroke-width: 0.9; stroke-linejoin: miter"/>
   </g>
   <g id="patch_19">
    <path d="M 121.798287 173.995407 
L 133.444444 173.995407 
L 133.444444 144.541933 
L 121.798287 144.541933 
z
" clip-path="url(#pb42e2861e7)" style="fill: #d62728; stroke: #000000; stroke-width: 0.9; stroke-linejoin: miter"/>
   </g>
   <g id="patch_20">
    <path d="M 136.355984 173.995407 
L 148.002141 173.995407 
L 148.002141 144.541933 
L 136.355984 144.541933 
z
" clip-path="url(#pb42e2861e7)" style="fill: #9467bd; stroke: #000000; stroke-width: 0.9; stroke-linejoin: miter"/>
   </g>
   <g id="patch_21">
    <path d="M 150.91368 173.995407 
L 162.559838 173.995407 
L 162.559838 144.541933 
L 150.91368 144.541933 
z
" clip-path="url(#pb42e2861e7)" style="fill: #8c564b; stroke: #000000; stroke-width: 0.9; stroke-linejoin: miter"/>
   </g>
   <g id="patch_22">
    <path d="M 165.471377 173.995407 
L 177.117534 173.995407 
L 177.117534 144.541933 
L 165.471377 144.541933 
z
" clip-path="url(#pb42e2861e7)" style="fill: #e377c2; stroke: #000000; stroke-width: 0.9; stroke-linejoin: miter"/>
   </g>
   <g id="patch_23">
    <path d="M 180.029074 173.995407 
L 191.675231 173.995407 
L 191.675231 144.541933 
L 180.029074 144.541933 
z
" clip-path="url(#pb42e2861e7)" style="fill: #7f7f7f; stroke: #000000; stroke-width: 0.9; stroke-linejoin: miter"/>
   </g>
   <g id="patch_24">
    <path d="M 194.58677 173.995407 
L 206.232928 173.995407 
L 206.232928 144.541933 
L 194.58677 144.541933 
z
" clip-path="url(#pb42e2861e7)" style="fill: #bcbd22; stroke: #000000; stroke-width: 0.9; stroke-linejoin: miter"/>
   </g>
   <g id="patch_25">
    <path d="M 209.144467 173.995407 
L 220.790624 173.995407 
L 220.790624 144.541933 
L 209.144467 144.541933 
z
" clip-path="url(#pb42e2861e7)" style="fill: #17becf; stroke: #000000; stroke-width: 0.9; stroke-linejoin: miter"/>
   </g>
   <g id="patch_26">
    <path d="M 223.702164 173.995407 
L 235.348321 173.995407 
L 235.348321 144.541933 
L 223.702164 144.541933 
z
" clip-path="url(#pb42e2861e7)" style="fill: #1f77b4; stroke: #000000; stroke-width: 0.9; stroke-linejoin: miter"/>
   </g>
   <g id="patch_27">
    <path d="M 238.259861 173.995407 
L 249.906018 173.995407 
L 249.906018 144.541933 
L 238.259861 144.541933 
z
" clip-path="url(#pb42e2861e7)" style="fill: #ff7f0e; stroke: #000000; stroke-width: 0.9; stroke-linejoin: miter"/>
   </g>
   <g id="patch_28">
    <path d="M 252.817557 173.995407 
L 264.463715 173.995407 
L 264.463715 144.541933 
L 252.817557 144.541933 
z
" clip-path="url(#pb42e2861e7)" style="fill: #2ca02c; stroke: #000000; stroke-width: 0.9; stroke-linejoin: miter"/>
   </g>
   <g id="patch_29">
    <path d="M 267.375254 173.995407 
L 279.021411 173.995407 
L 279.021411 144.541933 
L 267.375254 144.541933 
z
" clip-path="url(#pb42e2861e7)" style="fill: #d62728; stroke: #000000; stroke-width: 0.9; stroke-linejoin: miter"/>
   </g>
   <g id="text_1">
    <!-- Q heads (14) -->
    <g style="fill: #444444" transform="translate(11.62125 108.192158) scale(0.08 -0.08)">
     <defs>
      <path id="DejaVuSans-51" d="M 2522 4238 
Q 1834 4238 1429 3725 
Q 1025 3213 1025 2328 
Q 1025 1447 1429 934 
Q 1834 422 2522 422 
Q 3209 422 3611 934 
Q 4013 1447 4013 2328 
Q 4013 3213 3611 3725 
Q 3209 4238 2522 4238 
z
M 3406 84 
L 4238 -825 
L 3475 -825 
L 2784 -78 
Q 2681 -84 2626 -87 
Q 2572 -91 2522 -91 
Q 1538 -91 948 567 
Q 359 1225 359 2328 
Q 359 3434 948 4092 
Q 1538 4750 2522 4750 
Q 3503 4750 4090 4092 
Q 4678 3434 4678 2328 
Q 4678 1516 4351 937 
Q 4025 359 3406 84 
z
" transform="scale(0.015625)"/>
      <path id="DejaVuSans-20" transform="scale(0.015625)"/>
      <path id="DejaVuSans-68" d="M 3513 2113 
L 3513 0 
L 2938 0 
L 2938 2094 
Q 2938 2591 2744 2837 
Q 2550 3084 2163 3084 
Q 1697 3084 1428 2787 
Q 1159 2491 1159 1978 
L 1159 0 
L 581 0 
L 581 4863 
L 1159 4863 
L 1159 2956 
Q 1366 3272 1645 3428 
Q 1925 3584 2291 3584 
Q 2894 3584 3203 3211 
Q 3513 2838 3513 2113 
z
" transform="scale(0.015625)"/>
      <path id="DejaVuSans-65" d="M 3597 1894 
L 3597 1613 
L 953 1613 
Q 991 1019 1311 708 
Q 1631 397 2203 397 
Q 2534 397 2845 478 
Q 3156 559 3463 722 
L 3463 178 
Q 3153 47 2828 -22 
Q 2503 -91 2169 -91 
Q 1331 -91 842 396 
Q 353 884 353 1716 
Q 353 2575 817 3079 
Q 1281 3584 2069 3584 
Q 2775 3584 3186 3129 
Q 3597 2675 3597 1894 
z
M 3022 2063 
Q 3016 2534 2758 2815 
Q 2500 3097 2075 3097 
Q 1594 3097 1305 2825 
Q 1016 2553 972 2059 
L 3022 2063 
z
" transform="scale(0.015625)"/>
      <path id="DejaVuSans-61" d="M 2194 1759 
Q 1497 1759 1228 1600 
Q 959 1441 959 1056 
Q 959 750 1161 570 
Q 1363 391 1709 391 
Q 2188 391 2477 730 
Q 2766 1069 2766 1631 
L 2766 1759 
L 2194 1759 
z
M 3341 1997 
L 3341 0 
L 2766 0 
L 2766 531 
Q 2569 213 2275 61 
Q 1981 -91 1556 -91 
Q 1019 -91 701 211 
Q 384 513 384 1019 
Q 384 1609 779 1909 
Q 1175 2209 1959 2209 
L 2766 2209 
L 2766 2266 
Q 2766 2663 2505 2880 
Q 2244 3097 1772 3097 
Q 1472 3097 1187 3025 
Q 903 2953 641 2809 
L 641 3341 
Q 956 3463 1253 3523 
Q 1550 3584 1831 3584 
Q 2591 3584 2966 3190 
Q 3341 2797 3341 1997 
z
" transform="scale(0.015625)"/>
      <path id="DejaVuSans-64" d="M 2906 2969 
L 2906 4863 
L 3481 4863 
L 3481 0 
L 2906 0 
L 2906 525 
Q 2725 213 2448 61 
Q 2172 -91 1784 -91 
Q 1150 -91 751 415 
Q 353 922 353 1747 
Q 353 2572 751 3078 
Q 1150 3584 1784 3584 
Q 2172 3584 2448 3432 
Q 2725 3281 2906 2969 
z
M 947 1747 
Q 947 1113 1208 752 
Q 1469 391 1925 391 
Q 2381 391 2643 752 
Q 2906 1113 2906 1747 
Q 2906 2381 2643 2742 
Q 2381 3103 1925 3103 
Q 1469 3103 1208 2742 
Q 947 2381 947 1747 
z
" transform="scale(0.015625)"/>
      <path id="DejaVuSans-73" d="M 2834 3397 
L 2834 2853 
Q 2591 2978 2328 3040 
Q 2066 3103 1784 3103 
Q 1356 3103 1142 2972 
Q 928 2841 928 2578 
Q 928 2378 1081 2264 
Q 1234 2150 1697 2047 
L 1894 2003 
Q 2506 1872 2764 1633 
Q 3022 1394 3022 966 
Q 3022 478 2636 193 
Q 2250 -91 1575 -91 
Q 1294 -91 989 -36 
Q 684 19 347 128 
L 347 722 
Q 666 556 975 473 
Q 1284 391 1588 391 
Q 1994 391 2212 530 
Q 2431 669 2431 922 
Q 2431 1156 2273 1281 
Q 2116 1406 1581 1522 
L 1381 1569 
Q 847 1681 609 1914 
Q 372 2147 372 2553 
Q 372 3047 722 3315 
Q 1072 3584 1716 3584 
Q 2034 3584 2315 3537 
Q 2597 3491 2834 3397 
z
" transform="scale(0.015625)"/>
      <path id="DejaVuSans-28" d="M 1984 4856 
Q 1566 4138 1362 3434 
Q 1159 2731 1159 2009 
Q 1159 1288 1364 580 
Q 1569 -128 1984 -844 
L 1484 -844 
Q 1016 -109 783 600 
Q 550 1309 550 2009 
Q 550 2706 781 3412 
Q 1013 4119 1484 4856 
L 1984 4856 
z
" transform="scale(0.015625)"/>
      <path id="DejaVuSans-31" d="M 794 531 
L 1825 531 
L 1825 4091 
L 703 3866 
L 703 4441 
L 1819 4666 
L 2450 4666 
L 2450 531 
L 3481 531 
L 3481 0 
L 794 0 
L 794 531 
z
" transform="scale(0.015625)"/>
      <path id="DejaVuSans-34" d="M 2419 4116 
L 825 1625 
L 2419 1625 
L 2419 4116 
z
M 2253 4666 
L 3047 4666 
L 3047 1625 
L 3713 1625 
L 3713 1100 
L 3047 1100 
L 3047 0 
L 2419 0 
L 2419 1100 
L 313 1100 
L 313 1709 
L 2253 4666 
z
" transform="scale(0.015625)"/>
      <path id="DejaVuSans-29" d="M 513 4856 
L 1013 4856 
Q 1481 4119 1714 3412 
Q 1947 2706 1947 2009 
Q 1947 1309 1714 600 
Q 1481 -109 1013 -844 
L 513 -844 
Q 928 -128 1133 580 
Q 1338 1288 1338 2009 
Q 1338 2731 1133 3434 
Q 928 4138 513 4856 
z
" transform="scale(0.015625)"/>
     </defs>
     <use xlink:href="#DejaVuSans-51"/>
     <use xlink:href="#DejaVuSans-20" transform="translate(78.710938 0)"/>
     <use xlink:href="#DejaVuSans-68" transform="translate(110.498047 0)"/>
     <use xlink:href="#DejaVuSans-65" transform="translate(173.876953 0)"/>
     <use xlink:href="#DejaVuSans-61" transform="translate(235.400391 0)"/>
     <use xlink:href="#DejaVuSans-64" transform="translate(296.679688 0)"/>
     <use xlink:href="#DejaVuSans-73" transform="translate(360.15625 0)"/>
     <use xlink:href="#DejaVuSans-20" transform="translate(412.255859 0)"/>
     <use xlink:href="#DejaVuSans-28" transform="translate(444.042969 0)"/>
     <use xlink:href="#DejaVuSans-31" transform="translate(483.056641 0)"/>
     <use xlink:href="#DejaVuSans-34" transform="translate(546.679688 0)"/>
     <use xlink:href="#DejaVuSans-29" transform="translate(610.302734 0)"/>
    </g>
   </g>
   <g id="text_2">
    <!-- KV heads (14) -->
    <g style="fill: #444444" transform="translate(7.2 161.743929) scale(0.08 -0.08)">
     <defs>
      <path id="DejaVuSans-4b" d="M 628 4666 
L 1259 4666 
L 1259 2694 
L 3353 4666 
L 4166 4666 
L 1850 2491 
L 4331 0 
L 3500 0 
L 1259 2247 
L 1259 0 
L 628 0 
L 628 4666 
z
" transform="scale(0.015625)"/>
      <path id="DejaVuSans-56" d="M 1831 0 
L 50 4666 
L 709 4666 
L 2188 738 
L 3669 4666 
L 4325 4666 
L 2547 0 
L 1831 0 
z
" transform="scale(0.015625)"/>
     </defs>
     <use xlink:href="#DejaVuSans-4b"/>
     <use xlink:href="#DejaVuSans-56" transform="translate(65.576172 0)"/>
     <use xlink:href="#DejaVuSans-20" transform="translate(133.984375 0)"/>
     <use xlink:href="#DejaVuSans-68" transform="translate(165.771484 0)"/>
     <use xlink:href="#DejaVuSans-65" transform="translate(229.150391 0)"/>
     <use xlink:href="#DejaVuSans-61" transform="translate(290.673828 0)"/>
     <use xlink:href="#DejaVuSans-64" transform="translate(351.953125 0)"/>
     <use xlink:href="#DejaVuSans-73" transform="translate(415.429688 0)"/>
     <use xlink:href="#DejaVuSans-20" transform="translate(467.529297 0)"/>
     <use xlink:href="#DejaVuSans-28" transform="translate(499.316406 0)"/>
     <use xlink:href="#DejaVuSans-31" transform="translate(538.330078 0)"/>
     <use xlink:href="#DejaVuSans-34" transform="translate(601.953125 0)"/>
     <use xlink:href="#DejaVuSans-29" transform="translate(665.576172 0)"/>
    </g>
   </g>
   <g id="text_3">
    <!-- 1 query per KV head -->
    <g style="fill: #444444" transform="translate(138.860324 202.978792) scale(0.08 -0.08)">
     <defs>
      <path id="DejaVuSans-71" d="M 947 1747 
Q 947 1113 1208 752 
Q 1469 391 1925 391 
Q 2381 391 2643 752 
Q 2906 1113 2906 1747 
Q 2906 2381 2643 2742 
Q 2381 3103 1925 3103 
Q 1469 3103 1208 2742 
Q 947 2381 947 1747 
z
M 2906 525 
Q 2725 213 2448 61 
Q 2172 -91 1784 -91 
Q 1150 -91 751 415 
Q 353 922 353 1747 
Q 353 2572 751 3078 
Q 1150 3584 1784 3584 
Q 2172 3584 2448 3432 
Q 2725 3281 2906 2969 
L 2906 3500 
L 3481 3500 
L 3481 -1331 
L 2906 -1331 
L 2906 525 
z
" transform="scale(0.015625)"/>
      <path id="DejaVuSans-75" d="M 544 1381 
L 544 3500 
L 1119 3500 
L 1119 1403 
Q 1119 906 1312 657 
Q 1506 409 1894 409 
Q 2359 409 2629 706 
Q 2900 1003 2900 1516 
L 2900 3500 
L 3475 3500 
L 3475 0 
L 2900 0 
L 2900 538 
Q 2691 219 2414 64 
Q 2138 -91 1772 -91 
Q 1169 -91 856 284 
Q 544 659 544 1381 
z
M 1991 3584 
L 1991 3584 
z
" transform="scale(0.015625)"/>
      <path id="DejaVuSans-72" d="M 2631 2963 
Q 2534 3019 2420 3045 
Q 2306 3072 2169 3072 
Q 1681 3072 1420 2755 
Q 1159 2438 1159 1844 
L 1159 0 
L 581 0 
L 581 3500 
L 1159 3500 
L 1159 2956 
Q 1341 3275 1631 3429 
Q 1922 3584 2338 3584 
Q 2397 3584 2469 3576 
Q 2541 3569 2628 3553 
L 2631 2963 
z
" transform="scale(0.015625)"/>
      <path id="DejaVuSans-79" d="M 2059 -325 
Q 1816 -950 1584 -1140 
Q 1353 -1331 966 -1331 
L 506 -1331 
L 506 -850 
L 844 -850 
Q 1081 -850 1212 -737 
Q 1344 -625 1503 -206 
L 1606 56 
L 191 3500 
L 800 3500 
L 1894 763 
L 2988 3500 
L 3597 3500 
L 2059 -325 
z
" transform="scale(0.015625)"/>
      <path id="DejaVuSans-70" d="M 1159 525 
L 1159 -1331 
L 581 -1331 
L 581 3500 
L 1159 3500 
L 1159 2969 
Q 1341 3281 1617 3432 
Q 1894 3584 2278 3584 
Q 2916 3584 3314 3078 
Q 3713 2572 3713 1747 
Q 3713 922 3314 415 
Q 2916 -91 2278 -91 
Q 1894 -91 1617 61 
Q 1341 213 1159 525 
z
M 3116 1747 
Q 3116 2381 2855 2742 
Q 2594 3103 2138 3103 
Q 1681 3103 1420 2742 
Q 1159 2381 1159 1747 
Q 1159 1113 1420 752 
Q 1681 391 2138 391 
Q 2594 391 2855 752 
Q 3116 1113 3116 1747 
z
" transform="scale(0.015625)"/>
     </defs>
     <use xlink:href="#DejaVuSans-31"/>
     <use xlink:href="#DejaVuSans-20" transform="translate(63.623047 0)"/>
     <use xlink:href="#DejaVuSans-71" transform="translate(95.410156 0)"/>
     <use xlink:href="#DejaVuSans-75" transform="translate(158.886719 0)"/>
     <use xlink:href="#DejaVuSans-65" transform="translate(222.265625 0)"/>
     <use xlink:href="#DejaVuSans-72" transform="translate(283.789062 0)"/>
     <use xlink:href="#DejaVuSans-79" transform="translate(324.902344 0)"/>
     <use xlink:href="#DejaVuSans-20" transform="translate(384.082031 0)"/>
     <use xlink:href="#DejaVuSans-70" transform="translate(415.869141 0)"/>
     <use xlink:href="#DejaVuSans-65" transform="translate(479.345703 0)"/>
     <use xlink:href="#DejaVuSans-72" transform="translate(540.869141 0)"/>
     <use xlink:href="#DejaVuSans-20" transform="translate(581.982422 0)"/>
     <use xlink:href="#DejaVuSans-4b" transform="translate(613.769531 0)"/>
     <use xlink:href="#DejaVuSans-56" transform="translate(679.345703 0)"/>
     <use xlink:href="#DejaVuSans-20" transform="translate(747.753906 0)"/>
     <use xlink:href="#DejaVuSans-68" transform="translate(779.541016 0)"/>
     <use xlink:href="#DejaVuSans-65" transform="translate(842.919922 0)"/>
     <use xlink:href="#DejaVuSans-61" transform="translate(904.443359 0)"/>
     <use xlink:href="#DejaVuSans-64" transform="translate(965.722656 0)"/>
    </g>
   </g>
   <g id="text_4">
    <!-- MHA  (n_kv = 14) -->
    <g transform="translate(112.165246 63.569455) scale(0.11 -0.11)">
     <defs>
      <path id="DejaVuSans-4d" d="M 628 4666 
L 1569 4666 
L 2759 1491 
L 3956 4666 
L 4897 4666 
L 4897 0 
L 4281 0 
L 4281 4097 
L 3078 897 
L 2444 897 
L 1241 4097 
L 1241 0 
L 628 0 
L 628 4666 
z
" transform="scale(0.015625)"/>
      <path id="DejaVuSans-48" d="M 628 4666 
L 1259 4666 
L 1259 2753 
L 3553 2753 
L 3553 4666 
L 4184 4666 
L 4184 0 
L 3553 0 
L 3553 2222 
L 1259 2222 
L 1259 0 
L 628 0 
L 628 4666 
z
" transform="scale(0.015625)"/>
      <path id="DejaVuSans-41" d="M 2188 4044 
L 1331 1722 
L 3047 1722 
L 2188 4044 
z
M 1831 4666 
L 2547 4666 
L 4325 0 
L 3669 0 
L 3244 1197 
L 1141 1197 
L 716 0 
L 50 0 
L 1831 4666 
z
" transform="scale(0.015625)"/>
      <path id="DejaVuSans-6e" d="M 3513 2113 
L 3513 0 
L 2938 0 
L 2938 2094 
Q 2938 2591 2744 2837 
Q 2550 3084 2163 3084 
Q 1697 3084 1428 2787 
Q 1159 2491 1159 1978 
L 1159 0 
L 581 0 
L 581 3500 
L 1159 3500 
L 1159 2956 
Q 1366 3272 1645 3428 
Q 1925 3584 2291 3584 
Q 2894 3584 3203 3211 
Q 3513 2838 3513 2113 
z
" transform="scale(0.015625)"/>
      <path id="DejaVuSans-5f" d="M 3263 -1063 
L 3263 -1509 
L -63 -1509 
L -63 -1063 
L 3263 -1063 
z
" transform="scale(0.015625)"/>
      <path id="DejaVuSans-6b" d="M 581 4863 
L 1159 4863 
L 1159 1991 
L 2875 3500 
L 3609 3500 
L 1753 1863 
L 3688 0 
L 2938 0 
L 1159 1709 
L 1159 0 
L 581 0 
L 581 4863 
z
" transform="scale(0.015625)"/>
      <path id="DejaVuSans-76" d="M 191 3500 
L 800 3500 
L 1894 563 
L 2988 3500 
L 3597 3500 
L 2284 0 
L 1503 0 
L 191 3500 
z
" transform="scale(0.015625)"/>
      <path id="DejaVuSans-3d" d="M 678 2906 
L 4684 2906 
L 4684 2381 
L 678 2381 
L 678 2906 
z
M 678 1631 
L 4684 1631 
L 4684 1100 
L 678 1100 
L 678 1631 
z
" transform="scale(0.015625)"/>
     </defs>
     <use xlink:href="#DejaVuSans-4d"/>
     <use xlink:href="#DejaVuSans-48" transform="translate(86.279297 0)"/>
     <use xlink:href="#DejaVuSans-41" transform="translate(161.474609 0)"/>
     <use xlink:href="#DejaVuSans-20" transform="translate(229.882812 0)"/>
     <use xlink:href="#DejaVuSans-20" transform="translate(261.669922 0)"/>
     <use xlink:href="#DejaVuSans-28" transform="translate(293.457031 0)"/>
     <use xlink:href="#DejaVuSans-6e" transform="translate(332.470703 0)"/>
     <use xlink:href="#DejaVuSans-5f" transform="translate(395.849609 0)"/>
     <use xlink:href="#DejaVuSans-6b" transform="translate(445.849609 0)"/>
     <use xlink:href="#DejaVuSans-76" transform="translate(503.759766 0)"/>
     <use xlink:href="#DejaVuSans-20" transform="translate(562.939453 0)"/>
     <use xlink:href="#DejaVuSans-3d" transform="translate(594.726562 0)"/>
     <use xlink:href="#DejaVuSans-20" transform="translate(678.515625 0)"/>
     <use xlink:href="#DejaVuSans-31" transform="translate(710.302734 0)"/>
     <use xlink:href="#DejaVuSans-34" transform="translate(773.925781 0)"/>
     <use xlink:href="#DejaVuSans-29" transform="translate(837.548828 0)"/>
    </g>
   </g>
  </g>
  <g id="axes_2">
   <g id="line2d_15">
    <path d="M 378.875548 120.443636 
L 422.548638 144.541933 
" clip-path="url(#pf9e2abfa26)" style="fill: none; stroke: #1f77b4; stroke-opacity: 0.8; stroke-width: 0.7; stroke-linecap: square"/>
   </g>
   <g id="line2d_16">
    <path d="M 393.433245 120.443636 
L 422.548638 144.541933 
" clip-path="url(#pf9e2abfa26)" style="fill: none; stroke: #1f77b4; stroke-opacity: 0.8; stroke-width: 0.7; stroke-linecap: square"/>
   </g>
   <g id="line2d_17">
    <path d="M 407.990942 120.443636 
L 422.548638 144.541933 
" clip-path="url(#pf9e2abfa26)" style="fill: none; stroke: #1f77b4; stroke-opacity: 0.8; stroke-width: 0.7; stroke-linecap: square"/>
   </g>
   <g id="line2d_18">
    <path d="M 422.548638 120.443636 
L 422.548638 144.541933 
" clip-path="url(#pf9e2abfa26)" style="fill: none; stroke: #1f77b4; stroke-opacity: 0.8; stroke-width: 0.7; stroke-linecap: square"/>
   </g>
   <g id="line2d_19">
    <path d="M 437.106335 120.443636 
L 422.548638 144.541933 
" clip-path="url(#pf9e2abfa26)" style="fill: none; stroke: #1f77b4; stroke-opacity: 0.8; stroke-width: 0.7; stroke-linecap: square"/>
   </g>
   <g id="line2d_20">
    <path d="M 451.664032 120.443636 
L 422.548638 144.541933 
" clip-path="url(#pf9e2abfa26)" style="fill: none; stroke: #1f77b4; stroke-opacity: 0.8; stroke-width: 0.7; stroke-linecap: square"/>
   </g>
   <g id="line2d_21">
    <path d="M 466.221728 120.443636 
L 422.548638 144.541933 
" clip-path="url(#pf9e2abfa26)" style="fill: none; stroke: #1f77b4; stroke-opacity: 0.8; stroke-width: 0.7; stroke-linecap: square"/>
   </g>
   <g id="line2d_22">
    <path d="M 480.779425 120.443636 
L 524.452515 144.541933 
" clip-path="url(#pf9e2abfa26)" style="fill: none; stroke: #ff7f0e; stroke-opacity: 0.8; stroke-width: 0.7; stroke-linecap: square"/>
   </g>
   <g id="line2d_23">
    <path d="M 495.337122 120.443636 
L 524.452515 144.541933 
" clip-path="url(#pf9e2abfa26)" style="fill: none; stroke: #ff7f0e; stroke-opacity: 0.8; stroke-width: 0.7; stroke-linecap: square"/>
   </g>
   <g id="line2d_24">
    <path d="M 509.894819 120.443636 
L 524.452515 144.541933 
" clip-path="url(#pf9e2abfa26)" style="fill: none; stroke: #ff7f0e; stroke-opacity: 0.8; stroke-width: 0.7; stroke-linecap: square"/>
   </g>
   <g id="line2d_25">
    <path d="M 524.452515 120.443636 
L 524.452515 144.541933 
" clip-path="url(#pf9e2abfa26)" style="fill: none; stroke: #ff7f0e; stroke-opacity: 0.8; stroke-width: 0.7; stroke-linecap: square"/>
   </g>
   <g id="line2d_26">
    <path d="M 539.010212 120.443636 
L 524.452515 144.541933 
" clip-path="url(#pf9e2abfa26)" style="fill: none; stroke: #ff7f0e; stroke-opacity: 0.8; stroke-width: 0.7; stroke-linecap: square"/>
   </g>
   <g id="line2d_27">
    <path d="M 553.567909 120.443636 
L 524.452515 144.541933 
" clip-path="url(#pf9e2abfa26)" style="fill: none; stroke: #ff7f0e; stroke-opacity: 0.8; stroke-width: 0.7; stroke-linecap: square"/>
   </g>
   <g id="line2d_28">
    <path d="M 568.125605 120.443636 
L 524.452515 144.541933 
" clip-path="url(#pf9e2abfa26)" style="fill: none; stroke: #ff7f0e; stroke-opacity: 0.8; stroke-width: 0.7; stroke-linecap: square"/>
   </g>
   <g id="patch_30">
    <path d="M 373.052469 120.443636 
L 384.698627 120.443636 
L 384.698627 90.990163 
L 373.052469 90.990163 
z
" clip-path="url(#pf9e2abfa26)" style="fill: #1f77b4; stroke: #000000; stroke-width: 0.6; stroke-linejoin: miter"/>
   </g>
   <g id="patch_31">
    <path d="M 387.610166 120.443636 
L 399.256324 120.443636 
L 399.256324 90.990163 
L 387.610166 90.990163 
z
" clip-path="url(#pf9e2abfa26)" style="fill: #1f77b4; stroke: #000000; stroke-width: 0.6; stroke-linejoin: miter"/>
   </g>
   <g id="patch_32">
    <path d="M 402.167863 120.443636 
L 413.81402 120.443636 
L 413.81402 90.990163 
L 402.167863 90.990163 
z
" clip-path="url(#pf9e2abfa26)" style="fill: #1f77b4; stroke: #000000; stroke-width: 0.6; stroke-linejoin: miter"/>
   </g>
   <g id="patch_33">
    <path d="M 416.72556 120.443636 
L 428.371717 120.443636 
L 428.371717 90.990163 
L 416.72556 90.990163 
z
" clip-path="url(#pf9e2abfa26)" style="fill: #1f77b4; stroke: #000000; stroke-width: 0.6; stroke-linejoin: miter"/>
   </g>
   <g id="patch_34">
    <path d="M 431.283256 120.443636 
L 442.929414 120.443636 
L 442.929414 90.990163 
L 431.283256 90.990163 
z
" clip-path="url(#pf9e2abfa26)" style="fill: #1f77b4; stroke: #000000; stroke-width: 0.6; stroke-linejoin: miter"/>
   </g>
   <g id="patch_35">
    <path d="M 445.840953 120.443636 
L 457.48711 120.443636 
L 457.48711 90.990163 
L 445.840953 90.990163 
z
" clip-path="url(#pf9e2abfa26)" style="fill: #1f77b4; stroke: #000000; stroke-width: 0.6; stroke-linejoin: miter"/>
   </g>
   <g id="patch_36">
    <path d="M 460.39865 120.443636 
L 472.044807 120.443636 
L 472.044807 90.990163 
L 460.39865 90.990163 
z
" clip-path="url(#pf9e2abfa26)" style="fill: #1f77b4; stroke: #000000; stroke-width: 0.6; stroke-linejoin: miter"/>
   </g>
   <g id="patch_37">
    <path d="M 474.956346 120.443636 
L 486.602504 120.443636 
L 486.602504 90.990163 
L 474.956346 90.990163 
z
" clip-path="url(#pf9e2abfa26)" style="fill: #ff7f0e; stroke: #000000; stroke-width: 0.6; stroke-linejoin: miter"/>
   </g>
   <g id="patch_38">
    <path d="M 489.514043 120.443636 
L 501.1602 120.443636 
L 501.1602 90.990163 
L 489.514043 90.990163 
z
" clip-path="url(#pf9e2abfa26)" style="fill: #ff7f0e; stroke: #000000; stroke-width: 0.6; stroke-linejoin: miter"/>
   </g>
   <g id="patch_39">
    <path d="M 504.07174 120.443636 
L 515.717897 120.443636 
L 515.717897 90.990163 
L 504.07174 90.990163 
z
" clip-path="url(#pf9e2abfa26)" style="fill: #ff7f0e; stroke: #000000; stroke-width: 0.6; stroke-linejoin: miter"/>
   </g>
   <g id="patch_40">
    <path d="M 518.629437 120.443636 
L 530.275594 120.443636 
L 530.275594 90.990163 
L 518.629437 90.990163 
z
" clip-path="url(#pf9e2abfa26)" style="fill: #ff7f0e; stroke: #000000; stroke-width: 0.6; stroke-linejoin: miter"/>
   </g>
   <g id="patch_41">
    <path d="M 533.187133 120.443636 
L 544.833291 120.443636 
L 544.833291 90.990163 
L 533.187133 90.990163 
z
" clip-path="url(#pf9e2abfa26)" style="fill: #ff7f0e; stroke: #000000; stroke-width: 0.6; stroke-linejoin: miter"/>
   </g>
   <g id="patch_42">
    <path d="M 547.74483 120.443636 
L 559.390987 120.443636 
L 559.390987 90.990163 
L 547.74483 90.990163 
z
" clip-path="url(#pf9e2abfa26)" style="fill: #ff7f0e; stroke: #000000; stroke-width: 0.6; stroke-linejoin: miter"/>
   </g>
   <g id="patch_43">
    <path d="M 562.302527 120.443636 
L 573.948684 120.443636 
L 573.948684 90.990163 
L 562.302527 90.990163 
z
" clip-path="url(#pf9e2abfa26)" style="fill: #ff7f0e; stroke: #000000; stroke-width: 0.6; stroke-linejoin: miter"/>
   </g>
   <g id="patch_44">
    <path d="M 373.052469 173.995407 
L 472.044807 173.995407 
L 472.044807 144.541933 
L 373.052469 144.541933 
z
" clip-path="url(#pf9e2abfa26)" style="fill: #1f77b4; stroke: #000000; stroke-width: 0.9; stroke-linejoin: miter"/>
   </g>
   <g id="patch_45">
    <path d="M 474.956346 173.995407 
L 573.948684 173.995407 
L 573.948684 144.541933 
L 474.956346 144.541933 
z
" clip-path="url(#pf9e2abfa26)" style="fill: #ff7f0e; stroke: #000000; stroke-width: 0.9; stroke-linejoin: miter"/>
   </g>
   <g id="text_5">
    <!-- Q heads (14) -->
    <g style="fill: #444444" transform="translate(306.548523 108.192158) scale(0.08 -0.08)">
     <use xlink:href="#DejaVuSans-51"/>
     <use xlink:href="#DejaVuSans-20" transform="translate(78.710938 0)"/>
     <use xlink:href="#DejaVuSans-68" transform="translate(110.498047 0)"/>
     <use xlink:href="#DejaVuSans-65" transform="translate(173.876953 0)"/>
     <use xlink:href="#DejaVuSans-61" transform="translate(235.400391 0)"/>
     <use xlink:href="#DejaVuSans-64" transform="translate(296.679688 0)"/>
     <use xlink:href="#DejaVuSans-73" transform="translate(360.15625 0)"/>
     <use xlink:href="#DejaVuSans-20" transform="translate(412.255859 0)"/>
     <use xlink:href="#DejaVuSans-28" transform="translate(444.042969 0)"/>
     <use xlink:href="#DejaVuSans-31" transform="translate(483.056641 0)"/>
     <use xlink:href="#DejaVuSans-34" transform="translate(546.679688 0)"/>
     <use xlink:href="#DejaVuSans-29" transform="translate(610.302734 0)"/>
    </g>
   </g>
   <g id="text_6">
    <!-- KV heads (2) -->
    <g style="fill: #444444" transform="translate(307.217273 161.743929) scale(0.08 -0.08)">
     <defs>
      <path id="DejaVuSans-32" d="M 1228 531 
L 3431 531 
L 3431 0 
L 469 0 
L 469 531 
Q 828 903 1448 1529 
Q 2069 2156 2228 2338 
Q 2531 2678 2651 2914 
Q 2772 3150 2772 3378 
Q 2772 3750 2511 3984 
Q 2250 4219 1831 4219 
Q 1534 4219 1204 4116 
Q 875 4013 500 3803 
L 500 4441 
Q 881 4594 1212 4672 
Q 1544 4750 1819 4750 
Q 2544 4750 2975 4387 
Q 3406 4025 3406 3419 
Q 3406 3131 3298 2873 
Q 3191 2616 2906 2266 
Q 2828 2175 2409 1742 
Q 1991 1309 1228 531 
z
" transform="scale(0.015625)"/>
     </defs>
     <use xlink:href="#DejaVuSans-4b"/>
     <use xlink:href="#DejaVuSans-56" transform="translate(65.576172 0)"/>
     <use xlink:href="#DejaVuSans-20" transform="translate(133.984375 0)"/>
     <use xlink:href="#DejaVuSans-68" transform="translate(165.771484 0)"/>
     <use xlink:href="#DejaVuSans-65" transform="translate(229.150391 0)"/>
     <use xlink:href="#DejaVuSans-61" transform="translate(290.673828 0)"/>
     <use xlink:href="#DejaVuSans-64" transform="translate(351.953125 0)"/>
     <use xlink:href="#DejaVuSans-73" transform="translate(415.429688 0)"/>
     <use xlink:href="#DejaVuSans-20" transform="translate(467.529297 0)"/>
     <use xlink:href="#DejaVuSans-28" transform="translate(499.316406 0)"/>
     <use xlink:href="#DejaVuSans-32" transform="translate(538.330078 0)"/>
     <use xlink:href="#DejaVuSans-29" transform="translate(601.953125 0)"/>
    </g>
   </g>
   <g id="text_7">
    <!-- 7 queries share 1 KV head -->
    <g style="fill: #444444" transform="translate(422.241971 202.978792) scale(0.08 -0.08)">
     <defs>
      <path id="DejaVuSans-37" d="M 525 4666 
L 3525 4666 
L 3525 4397 
L 1831 0 
L 1172 0 
L 2766 4134 
L 525 4134 
L 525 4666 
z
" transform="scale(0.015625)"/>
      <path id="DejaVuSans-69" d="M 603 3500 
L 1178 3500 
L 1178 0 
L 603 0 
L 603 3500 
z
M 603 4863 
L 1178 4863 
L 1178 4134 
L 603 4134 
L 603 4863 
z
" transform="scale(0.015625)"/>
     </defs>
     <use xlink:href="#DejaVuSans-37"/>
     <use xlink:href="#DejaVuSans-20" transform="translate(63.623047 0)"/>
     <use xlink:href="#DejaVuSans-71" transform="translate(95.410156 0)"/>
     <use xlink:href="#DejaVuSans-75" transform="translate(158.886719 0)"/>
     <use xlink:href="#DejaVuSans-65" transform="translate(222.265625 0)"/>
     <use xlink:href="#DejaVuSans-72" transform="translate(283.789062 0)"/>
     <use xlink:href="#DejaVuSans-69" transform="translate(324.902344 0)"/>
     <use xlink:href="#DejaVuSans-65" transform="translate(352.685547 0)"/>
     <use xlink:href="#DejaVuSans-73" transform="translate(414.208984 0)"/>
     <use xlink:href="#DejaVuSans-20" transform="translate(466.308594 0)"/>
     <use xlink:href="#DejaVuSans-73" transform="translate(498.095703 0)"/>
     <use xlink:href="#DejaVuSans-68" transform="translate(550.195312 0)"/>
     <use xlink:href="#DejaVuSans-61" transform="translate(613.574219 0)"/>
     <use xlink:href="#DejaVuSans-72" transform="translate(674.853516 0)"/>
     <use xlink:href="#DejaVuSans-65" transform="translate(713.716797 0)"/>
     <use xlink:href="#DejaVuSans-20" transform="translate(775.240234 0)"/>
     <use xlink:href="#DejaVuSans-31" transform="translate(807.027344 0)"/>
     <use xlink:href="#DejaVuSans-20" transform="translate(870.650391 0)"/>
     <use xlink:href="#DejaVuSans-4b" transform="translate(902.4375 0)"/>
     <use xlink:href="#DejaVuSans-56" transform="translate(968.013672 0)"/>
     <use xlink:href="#DejaVuSans-20" transform="translate(1036.421875 0)"/>
     <use xlink:href="#DejaVuSans-68" transform="translate(1068.208984 0)"/>
     <use xlink:href="#DejaVuSans-65" transform="translate(1131.587891 0)"/>
     <use xlink:href="#DejaVuSans-61" transform="translate(1193.111328 0)"/>
     <use xlink:href="#DejaVuSans-64" transform="translate(1254.390625 0)"/>
    </g>
   </g>
   <g id="text_8">
    <!-- GQA  (n_kv = 2)  ← Qwen2 -->
    <g transform="translate(381.832909 63.569455) scale(0.11 -0.11)">
     <defs>
      <path id="DejaVuSans-47" d="M 3809 666 
L 3809 1919 
L 2778 1919 
L 2778 2438 
L 4434 2438 
L 4434 434 
Q 4069 175 3628 42 
Q 3188 -91 2688 -91 
Q 1594 -91 976 548 
Q 359 1188 359 2328 
Q 359 3472 976 4111 
Q 1594 4750 2688 4750 
Q 3144 4750 3555 4637 
Q 3966 4525 4313 4306 
L 4313 3634 
Q 3963 3931 3569 4081 
Q 3175 4231 2741 4231 
Q 1884 4231 1454 3753 
Q 1025 3275 1025 2328 
Q 1025 1384 1454 906 
Q 1884 428 2741 428 
Q 3075 428 3337 486 
Q 3600 544 3809 666 
z
" transform="scale(0.015625)"/>
      <path id="DejaVuSans-2190" d="M 313 1866 
L 313 2147 
L 1541 3375 
L 1916 3000 
L 1188 2272 
L 4997 2272 
L 4997 1741 
L 1188 1741 
L 1916 1013 
L 1541 638 
L 313 1866 
z
" transform="scale(0.015625)"/>
      <path id="DejaVuSans-77" d="M 269 3500 
L 844 3500 
L 1563 769 
L 2278 3500 
L 2956 3500 
L 3675 769 
L 4391 3500 
L 4966 3500 
L 4050 0 
L 3372 0 
L 2619 2869 
L 1863 0 
L 1184 0 
L 269 3500 
z
" transform="scale(0.015625)"/>
     </defs>
     <use xlink:href="#DejaVuSans-47"/>
     <use xlink:href="#DejaVuSans-51" transform="translate(77.490234 0)"/>
     <use xlink:href="#DejaVuSans-41" transform="translate(156.201172 0)"/>
     <use xlink:href="#DejaVuSans-20" transform="translate(224.609375 0)"/>
     <use xlink:href="#DejaVuSans-20" transform="translate(256.396484 0)"/>
     <use xlink:href="#DejaVuSans-28" transform="translate(288.183594 0)"/>
     <use xlink:href="#DejaVuSans-6e" transform="translate(327.197266 0)"/>
     <use xlink:href="#DejaVuSans-5f" transform="translate(390.576172 0)"/>
     <use xlink:href="#DejaVuSans-6b" transform="translate(440.576172 0)"/>
     <use xlink:href="#DejaVuSans-76" transform="translate(498.486328 0)"/>
     <use xlink:href="#DejaVuSans-20" transform="translate(557.666016 0)"/>
     <use xlink:href="#DejaVuSans-3d" transform="translate(589.453125 0)"/>
     <use xlink:href="#DejaVuSans-20" transform="translate(673.242188 0)"/>
     <use xlink:href="#DejaVuSans-32" transform="translate(705.029297 0)"/>
     <use xlink:href="#DejaVuSans-29" transform="translate(768.652344 0)"/>
     <use xlink:href="#DejaVuSans-20" transform="translate(807.666016 0)"/>
     <use xlink:href="#DejaVuSans-20" transform="translate(839.453125 0)"/>
     <use xlink:href="#DejaVuSans-2190" transform="translate(871.240234 0)"/>
     <use xlink:href="#DejaVuSans-20" transform="translate(955.029297 0)"/>
     <use xlink:href="#DejaVuSans-51" transform="translate(986.816406 0)"/>
     <use xlink:href="#DejaVuSans-77" transform="translate(1065.527344 0)"/>
     <use xlink:href="#DejaVuSans-65" transform="translate(1147.314453 0)"/>
     <use xlink:href="#DejaVuSans-6e" transform="translate(1208.837891 0)"/>
     <use xlink:href="#DejaVuSans-32" transform="translate(1272.216797 0)"/>
    </g>
   </g>
  </g>
  <g id="axes_3">
   <g id="line2d_29">
    <path d="M 673.802821 120.443636 
L 768.427849 144.541933 
" clip-path="url(#pa09e8951c3)" style="fill: none; stroke: #1f77b4; stroke-opacity: 0.8; stroke-width: 0.7; stroke-linecap: square"/>
   </g>
   <g id="line2d_30">
    <path d="M 688.360518 120.443636 
L 768.427849 144.541933 
" clip-path="url(#pa09e8951c3)" style="fill: none; stroke: #1f77b4; stroke-opacity: 0.8; stroke-width: 0.7; stroke-linecap: square"/>
   </g>
   <g id="line2d_31">
    <path d="M 702.918214 120.443636 
L 768.427849 144.541933 
" clip-path="url(#pa09e8951c3)" style="fill: none; stroke: #1f77b4; stroke-opacity: 0.8; stroke-width: 0.7; stroke-linecap: square"/>
   </g>
   <g id="line2d_32">
    <path d="M 717.475911 120.443636 
L 768.427849 144.541933 
" clip-path="url(#pa09e8951c3)" style="fill: none; stroke: #1f77b4; stroke-opacity: 0.8; stroke-width: 0.7; stroke-linecap: square"/>
   </g>
   <g id="line2d_33">
    <path d="M 732.033608 120.443636 
L 768.427849 144.541933 
" clip-path="url(#pa09e8951c3)" style="fill: none; stroke: #1f77b4; stroke-opacity: 0.8; stroke-width: 0.7; stroke-linecap: square"/>
   </g>
   <g id="line2d_34">
    <path d="M 746.591304 120.443636 
L 768.427849 144.541933 
" clip-path="url(#pa09e8951c3)" style="fill: none; stroke: #1f77b4; stroke-opacity: 0.8; stroke-width: 0.7; stroke-linecap: square"/>
   </g>
   <g id="line2d_35">
    <path d="M 761.149001 120.443636 
L 768.427849 144.541933 
" clip-path="url(#pa09e8951c3)" style="fill: none; stroke: #1f77b4; stroke-opacity: 0.8; stroke-width: 0.7; stroke-linecap: square"/>
   </g>
   <g id="line2d_36">
    <path d="M 775.706698 120.443636 
L 768.427849 144.541933 
" clip-path="url(#pa09e8951c3)" style="fill: none; stroke: #1f77b4; stroke-opacity: 0.8; stroke-width: 0.7; stroke-linecap: square"/>
   </g>
   <g id="line2d_37">
    <path d="M 790.264395 120.443636 
L 768.427849 144.541933 
" clip-path="url(#pa09e8951c3)" style="fill: none; stroke: #1f77b4; stroke-opacity: 0.8; stroke-width: 0.7; stroke-linecap: square"/>
   </g>
   <g id="line2d_38">
    <path d="M 804.822091 120.443636 
L 768.427849 144.541933 
" clip-path="url(#pa09e8951c3)" style="fill: none; stroke: #1f77b4; stroke-opacity: 0.8; stroke-width: 0.7; stroke-linecap: square"/>
   </g>
   <g id="line2d_39">
    <path d="M 819.379788 120.443636 
L 768.427849 144.541933 
" clip-path="url(#pa09e8951c3)" style="fill: none; stroke: #1f77b4; stroke-opacity: 0.8; stroke-width: 0.7; stroke-linecap: square"/>
   </g>
   <g id="line2d_40">
    <path d="M 833.937485 120.443636 
L 768.427849 144.541933 
" clip-path="url(#pa09e8951c3)" style="fill: none; stroke: #1f77b4; stroke-opacity: 0.8; stroke-width: 0.7; stroke-linecap: square"/>
   </g>
   <g id="line2d_41">
    <path d="M 848.495181 120.443636 
L 768.427849 144.541933 
" clip-path="url(#pa09e8951c3)" style="fill: none; stroke: #1f77b4; stroke-opacity: 0.8; stroke-width: 0.7; stroke-linecap: square"/>
   </g>
   <g id="line2d_42">
    <path d="M 863.052878 120.443636 
L 768.427849 144.541933 
" clip-path="url(#pa09e8951c3)" style="fill: none; stroke: #1f77b4; stroke-opacity: 0.8; stroke-width: 0.7; stroke-linecap: square"/>
   </g>
   <g id="patch_46">
    <path d="M 667.979742 120.443636 
L 679.6259 120.443636 
L 679.6259 90.990163 
L 667.979742 90.990163 
z
" clip-path="url(#pa09e8951c3)" style="fill: #1f77b4; stroke: #000000; stroke-width: 0.6; stroke-linejoin: miter"/>
   </g>
   <g id="patch_47">
    <path d="M 682.537439 120.443636 
L 694.183596 120.443636 
L 694.183596 90.990163 
L 682.537439 90.990163 
z
" clip-path="url(#pa09e8951c3)" style="fill: #1f77b4; stroke: #000000; stroke-width: 0.6; stroke-linejoin: miter"/>
   </g>
   <g id="patch_48">
    <path d="M 697.095136 120.443636 
L 708.741293 120.443636 
L 708.741293 90.990163 
L 697.095136 90.990163 
z
" clip-path="url(#pa09e8951c3)" style="fill: #1f77b4; stroke: #000000; stroke-width: 0.6; stroke-linejoin: miter"/>
   </g>
   <g id="patch_49">
    <path d="M 711.652832 120.443636 
L 723.29899 120.443636 
L 723.29899 90.990163 
L 711.652832 90.990163 
z
" clip-path="url(#pa09e8951c3)" style="fill: #1f77b4; stroke: #000000; stroke-width: 0.6; stroke-linejoin: miter"/>
   </g>
   <g id="patch_50">
    <path d="M 726.210529 120.443636 
L 737.856686 120.443636 
L 737.856686 90.990163 
L 726.210529 90.990163 
z
" clip-path="url(#pa09e8951c3)" style="fill: #1f77b4; stroke: #000000; stroke-width: 0.6; stroke-linejoin: miter"/>
   </g>
   <g id="patch_51">
    <path d="M 740.768226 120.443636 
L 752.414383 120.443636 
L 752.414383 90.990163 
L 740.768226 90.990163 
z
" clip-path="url(#pa09e8951c3)" style="fill: #1f77b4; stroke: #000000; stroke-width: 0.6; stroke-linejoin: miter"/>
   </g>
   <g id="patch_52">
    <path d="M 755.325922 120.443636 
L 766.97208 120.443636 
L 766.97208 90.990163 
L 755.325922 90.990163 
z
" clip-path="url(#pa09e8951c3)" style="fill: #1f77b4; stroke: #000000; stroke-width: 0.6; stroke-linejoin: miter"/>
   </g>
   <g id="patch_53">
    <path d="M 769.883619 120.443636 
L 781.529776 120.443636 
L 781.529776 90.990163 
L 769.883619 90.990163 
z
" clip-path="url(#pa09e8951c3)" style="fill: #1f77b4; stroke: #000000; stroke-width: 0.6; stroke-linejoin: miter"/>
   </g>
   <g id="patch_54">
    <path d="M 784.441316 120.443636 
L 796.087473 120.443636 
L 796.087473 90.990163 
L 784.441316 90.990163 
z
" clip-path="url(#pa09e8951c3)" style="fill: #1f77b4; stroke: #000000; stroke-width: 0.6; stroke-linejoin: miter"/>
   </g>
   <g id="patch_55">
    <path d="M 798.999013 120.443636 
L 810.64517 120.443636 
L 810.64517 90.990163 
L 798.999013 90.990163 
z
" clip-path="url(#pa09e8951c3)" style="fill: #1f77b4; stroke: #000000; stroke-width: 0.6; stroke-linejoin: miter"/>
   </g>
   <g id="patch_56">
    <path d="M 813.556709 120.443636 
L 825.202867 120.443636 
L 825.202867 90.990163 
L 813.556709 90.990163 
z
" clip-path="url(#pa09e8951c3)" style="fill: #1f77b4; stroke: #000000; stroke-width: 0.6; stroke-linejoin: miter"/>
   </g>
   <g id="patch_57">
    <path d="M 828.114406 120.443636 
L 839.760563 120.443636 
L 839.760563 90.990163 
L 828.114406 90.990163 
z
" clip-path="url(#pa09e8951c3)" style="fill: #1f77b4; stroke: #000000; stroke-width: 0.6; stroke-linejoin: miter"/>
   </g>
   <g id="patch_58">
    <path d="M 842.672103 120.443636 
L 854.31826 120.443636 
L 854.31826 90.990163 
L 842.672103 90.990163 
z
" clip-path="url(#pa09e8951c3)" style="fill: #1f77b4; stroke: #000000; stroke-width: 0.6; stroke-linejoin: miter"/>
   </g>
   <g id="patch_59">
    <path d="M 857.229799 120.443636 
L 868.875957 120.443636 
L 868.875957 90.990163 
L 857.229799 90.990163 
z
" clip-path="url(#pa09e8951c3)" style="fill: #1f77b4; stroke: #000000; stroke-width: 0.6; stroke-linejoin: miter"/>
   </g>
   <g id="patch_60">
    <path d="M 667.979742 173.995407 
L 868.875957 173.995407 
L 868.875957 144.541933 
L 667.979742 144.541933 
z
" clip-path="url(#pa09e8951c3)" style="fill: #1f77b4; stroke: #000000; stroke-width: 0.9; stroke-linejoin: miter"/>
   </g>
   <g id="text_9">
    <!-- Q heads (14) -->
    <g style="fill: #444444" transform="translate(601.475795 108.192158) scale(0.08 -0.08)">
     <use xlink:href="#DejaVuSans-51"/>
     <use xlink:href="#DejaVuSans-20" transform="translate(78.710938 0)"/>
     <use xlink:href="#DejaVuSans-68" transform="translate(110.498047 0)"/>
     <use xlink:href="#DejaVuSans-65" transform="translate(173.876953 0)"/>
     <use xlink:href="#DejaVuSans-61" transform="translate(235.400391 0)"/>
     <use xlink:href="#DejaVuSans-64" transform="translate(296.679688 0)"/>
     <use xlink:href="#DejaVuSans-73" transform="translate(360.15625 0)"/>
     <use xlink:href="#DejaVuSans-20" transform="translate(412.255859 0)"/>
     <use xlink:href="#DejaVuSans-28" transform="translate(444.042969 0)"/>
     <use xlink:href="#DejaVuSans-31" transform="translate(483.056641 0)"/>
     <use xlink:href="#DejaVuSans-34" transform="translate(546.679688 0)"/>
     <use xlink:href="#DejaVuSans-29" transform="translate(610.302734 0)"/>
    </g>
   </g>
   <g id="text_10">
    <!-- KV heads (1) -->
    <g style="fill: #444444" transform="translate(602.144545 161.743929) scale(0.08 -0.08)">
     <use xlink:href="#DejaVuSans-4b"/>
     <use xlink:href="#DejaVuSans-56" transform="translate(65.576172 0)"/>
     <use xlink:href="#DejaVuSans-20" transform="translate(133.984375 0)"/>
     <use xlink:href="#DejaVuSans-68" transform="translate(165.771484 0)"/>
     <use xlink:href="#DejaVuSans-65" transform="translate(229.150391 0)"/>
     <use xlink:href="#DejaVuSans-61" transform="translate(290.673828 0)"/>
     <use xlink:href="#DejaVuSans-64" transform="translate(351.953125 0)"/>
     <use xlink:href="#DejaVuSans-73" transform="translate(415.429688 0)"/>
     <use xlink:href="#DejaVuSans-20" transform="translate(467.529297 0)"/>
     <use xlink:href="#DejaVuSans-28" transform="translate(499.316406 0)"/>
     <use xlink:href="#DejaVuSans-31" transform="translate(538.330078 0)"/>
     <use xlink:href="#DejaVuSans-29" transform="translate(601.953125 0)"/>
    </g>
   </g>
   <g id="text_11">
    <!-- all queries share 1 KV head -->
    <g style="fill: #444444" transform="translate(715.040494 202.978792) scale(0.08 -0.08)">
     <defs>
      <path id="DejaVuSans-6c" d="M 603 4863 
L 1178 4863 
L 1178 0 
L 603 0 
L 603 4863 
z
" transform="scale(0.015625)"/>
     </defs>
     <use xlink:href="#DejaVuSans-61"/>
     <use xlink:href="#DejaVuSans-6c" transform="translate(61.279297 0)"/>
     <use xlink:href="#DejaVuSans-6c" transform="translate(89.0625 0)"/>
     <use xlink:href="#DejaVuSans-20" transform="translate(116.845703 0)"/>
     <use xlink:href="#DejaVuSans-71" transform="translate(148.632812 0)"/>
     <use xlink:href="#DejaVuSans-75" transform="translate(212.109375 0)"/>
     <use xlink:href="#DejaVuSans-65" transform="translate(275.488281 0)"/>
     <use xlink:href="#DejaVuSans-72" transform="translate(337.011719 0)"/>
     <use xlink:href="#DejaVuSans-69" transform="translate(378.125 0)"/>
     <use xlink:href="#DejaVuSans-65" transform="translate(405.908203 0)"/>
     <use xlink:href="#DejaVuSans-73" transform="translate(467.431641 0)"/>
     <use xlink:href="#DejaVuSans-20" transform="translate(519.53125 0)"/>
     <use xlink:href="#DejaVuSans-73" transform="translate(551.318359 0)"/>
     <use xlink:href="#DejaVuSans-68" transform="translate(603.417969 0)"/>
     <use xlink:href="#DejaVuSans-61" transform="translate(666.796875 0)"/>
     <use xlink:href="#DejaVuSans-72" transform="translate(728.076172 0)"/>
     <use xlink:href="#DejaVuSans-65" transform="translate(766.939453 0)"/>
     <use xlink:href="#DejaVuSans-20" transform="translate(828.462891 0)"/>
     <use xlink:href="#DejaVuSans-31" transform="translate(860.25 0)"/>
     <use xlink:href="#DejaVuSans-20" transform="translate(923.873047 0)"/>
     <use xlink:href="#DejaVuSans-4b" transform="translate(955.660156 0)"/>
     <use xlink:href="#DejaVuSans-56" transform="translate(1021.236328 0)"/>
     <use xlink:href="#DejaVuSans-20" transform="translate(1089.644531 0)"/>
     <use xlink:href="#DejaVuSans-68" transform="translate(1121.431641 0)"/>
     <use xlink:href="#DejaVuSans-65" transform="translate(1184.810547 0)"/>
     <use xlink:href="#DejaVuSans-61" transform="translate(1246.333984 0)"/>
     <use xlink:href="#DejaVuSans-64" transform="translate(1307.613281 0)"/>
    </g>
   </g>
   <g id="text_12">
    <!-- MQA  (n_kv = 1) -->
    <g transform="translate(705.325807 63.569455) scale(0.11 -0.11)">
     <use xlink:href="#DejaVuSans-4d"/>
     <use xlink:href="#DejaVuSans-51" transform="translate(86.279297 0)"/>
     <use xlink:href="#DejaVuSans-41" transform="translate(164.990234 0)"/>
     <use xlink:href="#DejaVuSans-20" transform="translate(233.398438 0)"/>
     <use xlink:href="#DejaVuSans-20" transform="translate(265.185547 0)"/>
     <use xlink:href="#DejaVuSans-28" transform="translate(296.972656 0)"/>
     <use xlink:href="#DejaVuSans-6e" transform="translate(335.986328 0)"/>
     <use xlink:href="#DejaVuSans-5f" transform="translate(399.365234 0)"/>
     <use xlink:href="#DejaVuSans-6b" transform="translate(449.365234 0)"/>
     <use xlink:href="#DejaVuSans-76" transform="translate(507.275391 0)"/>
     <use xlink:href="#DejaVuSans-20" transform="translate(566.455078 0)"/>
     <use xlink:href="#DejaVuSans-3d" transform="translate(598.242188 0)"/>
     <use xlink:href="#DejaVuSans-20" transform="translate(682.03125 0)"/>
     <use xlink:href="#DejaVuSans-31" transform="translate(713.818359 0)"/>
     <use xlink:href="#DejaVuSans-29" transform="translate(777.441406 0)"/>
    </g>
   </g>
  </g>
  <g id="text_13">
   <!-- Attention head grouping: KV heads drive KV-cache size -->
   <g transform="translate(274.539157 16.318125) scale(0.12 -0.12)">
    <defs>
     <path id="DejaVuSans-74" d="M 1172 4494 
L 1172 3500 
L 2356 3500 
L 2356 3053 
L 1172 3053 
L 1172 1153 
Q 1172 725 1289 603 
Q 1406 481 1766 481 
L 2356 481 
L 2356 0 
L 1766 0 
Q 1100 0 847 248 
Q 594 497 594 1153 
L 594 3053 
L 172 3053 
L 172 3500 
L 594 3500 
L 594 4494 
L 1172 4494 
z
" transform="scale(0.015625)"/>
     <path id="DejaVuSans-6f" d="M 1959 3097 
Q 1497 3097 1228 2736 
Q 959 2375 959 1747 
Q 959 1119 1226 758 
Q 1494 397 1959 397 
Q 2419 397 2687 759 
Q 2956 1122 2956 1747 
Q 2956 2369 2687 2733 
Q 2419 3097 1959 3097 
z
M 1959 3584 
Q 2709 3584 3137 3096 
Q 3566 2609 3566 1747 
Q 3566 888 3137 398 
Q 2709 -91 1959 -91 
Q 1206 -91 779 398 
Q 353 888 353 1747 
Q 353 2609 779 3096 
Q 1206 3584 1959 3584 
z
" transform="scale(0.015625)"/>
     <path id="DejaVuSans-67" d="M 2906 1791 
Q 2906 2416 2648 2759 
Q 2391 3103 1925 3103 
Q 1463 3103 1205 2759 
Q 947 2416 947 1791 
Q 947 1169 1205 825 
Q 1463 481 1925 481 
Q 2391 481 2648 825 
Q 2906 1169 2906 1791 
z
M 3481 434 
Q 3481 -459 3084 -895 
Q 2688 -1331 1869 -1331 
Q 1566 -1331 1297 -1286 
Q 1028 -1241 775 -1147 
L 775 -588 
Q 1028 -725 1275 -790 
Q 1522 -856 1778 -856 
Q 2344 -856 2625 -561 
Q 2906 -266 2906 331 
L 2906 616 
Q 2728 306 2450 153 
Q 2172 0 1784 0 
Q 1141 0 747 490 
Q 353 981 353 1791 
Q 353 2603 747 3093 
Q 1141 3584 1784 3584 
Q 2172 3584 2450 3431 
Q 2728 3278 2906 2969 
L 2906 3500 
L 3481 3500 
L 3481 434 
z
" transform="scale(0.015625)"/>
     <path id="DejaVuSans-3a" d="M 750 794 
L 1409 794 
L 1409 0 
L 750 0 
L 750 794 
z
M 750 3309 
L 1409 3309 
L 1409 2516 
L 750 2516 
L 750 3309 
z
" transform="scale(0.015625)"/>
     <path id="DejaVuSans-2d" d="M 313 2009 
L 1997 2009 
L 1997 1497 
L 313 1497 
L 313 2009 
z
" transform="scale(0.015625)"/>
     <path id="DejaVuSans-63" d="M 3122 3366 
L 3122 2828 
Q 2878 2963 2633 3030 
Q 2388 3097 2138 3097 
Q 1578 3097 1268 2742 
Q 959 2388 959 1747 
Q 959 1106 1268 751 
Q 1578 397 2138 397 
Q 2388 397 2633 464 
Q 2878 531 3122 666 
L 3122 134 
Q 2881 22 2623 -34 
Q 2366 -91 2075 -91 
Q 1284 -91 818 406 
Q 353 903 353 1747 
Q 353 2603 823 3093 
Q 1294 3584 2113 3584 
Q 2378 3584 2631 3529 
Q 2884 3475 3122 3366 
z
" transform="scale(0.015625)"/>
     <path id="DejaVuSans-7a" d="M 353 3500 
L 3084 3500 
L 3084 2975 
L 922 459 
L 3084 459 
L 3084 0 
L 275 0 
L 275 525 
L 2438 3041 
L 353 3041 
L 353 3500 
z
" transform="scale(0.015625)"/>
    </defs>
    <use xlink:href="#DejaVuSans-41"/>
    <use xlink:href="#DejaVuSans-74" transform="translate(66.658203 0)"/>
    <use xlink:href="#DejaVuSans-74" transform="translate(105.867188 0)"/>
    <use xlink:href="#DejaVuSans-65" transform="translate(145.076172 0)"/>
    <use xlink:href="#DejaVuSans-6e" transform="translate(206.599609 0)"/>
    <use xlink:href="#DejaVuSans-74" transform="translate(269.978516 0)"/>
    <use xlink:href="#DejaVuSans-69" transform="translate(309.1875 0)"/>
    <use xlink:href="#DejaVuSans-6f" transform="translate(336.970703 0)"/>
    <use xlink:href="#DejaVuSans-6e" transform="translate(398.152344 0)"/>
    <use xlink:href="#DejaVuSans-20" transform="translate(461.53125 0)"/>
    <use xlink:href="#DejaVuSans-68" transform="translate(493.318359 0)"/>
    <use xlink:href="#DejaVuSans-65" transform="translate(556.697266 0)"/>
    <use xlink:href="#DejaVuSans-61" transform="translate(618.220703 0)"/>
    <use xlink:href="#DejaVuSans-64" transform="translate(679.5 0)"/>
    <use xlink:href="#DejaVuSans-20" transform="translate(742.976562 0)"/>
    <use xlink:href="#DejaVuSans-67" transform="translate(774.763672 0)"/>
    <use xlink:href="#DejaVuSans-72" transform="translate(838.240234 0)"/>
    <use xlink:href="#DejaVuSans-6f" transform="translate(877.103516 0)"/>
    <use xlink:href="#DejaVuSans-75" transform="translate(938.285156 0)"/>
    <use xlink:href="#DejaVuSans-70" transform="translate(1001.664062 0)"/>
    <use xlink:href="#DejaVuSans-69" transform="translate(1065.140625 0)"/>
    <use xlink:href="#DejaVuSans-6e" transform="translate(1092.923828 0)"/>
    <use xlink:href="#DejaVuSans-67" transform="translate(1156.302734 0)"/>
    <use xlink:href="#DejaVuSans-3a" transform="translate(1219.779297 0)"/>
    <use xlink:href="#DejaVuSans-20" transform="translate(1253.470703 0)"/>
    <use xlink:href="#DejaVuSans-4b" transform="translate(1285.257812 0)"/>
    <use xlink:href="#DejaVuSans-56" transform="translate(1350.833984 0)"/>
    <use xlink:href="#DejaVuSans-20" transform="translate(1419.242188 0)"/>
    <use xlink:href="#DejaVuSans-68" transform="translate(1451.029297 0)"/>
    <use xlink:href="#DejaVuSans-65" transform="translate(1514.408203 0)"/>
    <use xlink:href="#DejaVuSans-61" transform="translate(1575.931641 0)"/>
    <use xlink:href="#DejaVuSans-64" transform="translate(1637.210938 0)"/>
    <use xlink:href="#DejaVuSans-73" transform="translate(1700.6875 0)"/>
    <use xlink:href="#DejaVuSans-20" transform="translate(1752.787109 0)"/>
    <use xlink:href="#DejaVuSans-64" transform="translate(1784.574219 0)"/>
    <use xlink:href="#DejaVuSans-72" transform="translate(1848.050781 0)"/>
    <use xlink:href="#DejaVuSans-69" transform="translate(1889.164062 0)"/>
    <use xlink:href="#DejaVuSans-76" transform="translate(1916.947266 0)"/>
    <use xlink:href="#DejaVuSans-65" transform="translate(1976.126953 0)"/>
    <use xlink:href="#DejaVuSans-20" transform="translate(2037.650391 0)"/>
    <use xlink:href="#DejaVuSans-4b" transform="translate(2069.4375 0)"/>
    <use xlink:href="#DejaVuSans-56" transform="translate(2135.013672 0)"/>
    <use xlink:href="#DejaVuSans-2d" transform="translate(2197.546875 0)"/>
    <use xlink:href="#DejaVuSans-63" transform="translate(2233.630859 0)"/>
    <use xlink:href="#DejaVuSans-61" transform="translate(2288.611328 0)"/>
    <use xlink:href="#DejaVuSans-63" transform="translate(2349.890625 0)"/>
    <use xlink:href="#DejaVuSans-68" transform="translate(2404.871094 0)"/>
    <use xlink:href="#DejaVuSans-65" transform="translate(2468.25 0)"/>
    <use xlink:href="#DejaVuSans-20" transform="translate(2529.773438 0)"/>
    <use xlink:href="#DejaVuSans-73" transform="translate(2561.560547 0)"/>
    <use xlink:href="#DejaVuSans-69" transform="translate(2613.660156 0)"/>
    <use xlink:href="#DejaVuSans-7a" transform="translate(2641.443359 0)"/>
    <use xlink:href="#DejaVuSans-65" transform="translate(2693.933594 0)"/>
   </g>
  </g>
 </g>
 <defs>
  <clipPath id="pb42e2861e7">
   <rect x="31.540567" y="69.569455" width="257.671232" height="152.622545"/>
  </clipPath>
  <clipPath id="pf9e2abfa26">
   <rect x="326.46784" y="69.569455" width="257.671232" height="152.622545"/>
  </clipPath>
  <clipPath id="pa09e8951c3">
   <rect x="621.395113" y="69.569455" width="257.671232" height="152.622545"/>
  </clipPath>
 </defs>
</svg>
